solid ramp_Default_sldprt
   facet normal -1.000000e+00 0.000000e+00 0.000000e+00
      outer loop
         vertex 0.000000e+00 0.000000e+00 0.000000e+00
         vertex 0.000000e+00 1.000000e+02 -1.000000e+03
         vertex 0.000000e+00 0.000000e+00 -1.000000e+03
      endloop
   endfacet
   facet normal 1.000000e+00 0.000000e+00 0.000000e+00
      outer loop
         vertex 1.000000e+03 1.000000e+02 -1.000000e+03
         vertex 1.000000e+03 0.000000e+00 0.000000e+00
         vertex 1.000000e+03 0.000000e+00 -1.000000e+03
      endloop
   endfacet
   facet normal 0.000000e+00 0.000000e+00 -1.000000e+00
      outer loop
         vertex -5.551115e-14 1.000000e+02 -1.000000e+03
         vertex 1.000000e+03 1.000000e+02 -1.000000e+03
         vertex 0.000000e+00 0.000000e+00 -1.000000e+03
      endloop
   endfacet
   facet normal 0.000000e+00 0.000000e+00 -1.000000e+00
      outer loop
         vertex 0.000000e+00 0.000000e+00 -1.000000e+03
         vertex 1.000000e+03 1.000000e+02 -1.000000e+03
         vertex 1.000000e+03 0.000000e+00 -1.000000e+03
      endloop
   endfacet
   facet normal 0.000000e+00 -1.000000e+00 0.000000e+00
      outer loop
         vertex 1.000000e+03 0.000000e+00 -1.000000e+03
         vertex 1.000000e+03 0.000000e+00 0.000000e+00
         vertex 0.000000e+00 0.000000e+00 -1.000000e+03
      endloop
   endfacet
   facet normal 0.000000e+00 -1.000000e+00 0.000000e+00
      outer loop
         vertex 0.000000e+00 0.000000e+00 -1.000000e+03
         vertex 1.000000e+03 0.000000e+00 0.000000e+00
         vertex 0.000000e+00 0.000000e+00 0.000000e+00
      endloop
   endfacet
   facet normal 0.000000e+00 9.950372e-01 9.950372e-02
      outer loop
         vertex 1.000000e+03 1.000000e+02 -1.000000e+03
         vertex -5.551115e-14 1.000000e+02 -1.000000e+03
         vertex 1.000000e+03 0.000000e+00 0.000000e+00
      endloop
   endfacet
   facet normal 0.000000e+00 9.950372e-01 9.950372e-02
      outer loop
         vertex 1.000000e+03 0.000000e+00 0.000000e+00
         vertex -5.551115e-14 1.000000e+02 -1.000000e+03
         vertex 0.000000e+00 0.000000e+00 0.000000e+00
      endloop
   endfacet
endsolid ramp_Default_sldprt