solid silo_base_Default_sldprt
   facet normal -1.000000e+00 -0.000000e+00 -0.000000e+00
      outer loop
         vertex 0.000000e+00 1.000000e+02 0.000000e+00
         vertex 0.000000e+00 1.000000e+02 -4.000000e+03
         vertex 0.000000e+00 0.000000e+00 0.000000e+00
      endloop
   endfacet
   facet normal -1.000000e+00 0.000000e+00 0.000000e+00
      outer loop
         vertex 0.000000e+00 0.000000e+00 0.000000e+00
         vertex 0.000000e+00 1.000000e+02 -4.000000e+03
         vertex 0.000000e+00 0.000000e+00 -4.000000e+03
      endloop
   endfacet
   facet normal 0.000000e+00 0.000000e+00 1.000000e+00
      outer loop
         vertex 2.500000e+02 1.000000e+02 0.000000e+00
         vertex 0.000000e+00 1.000000e+02 0.000000e+00
         vertex 2.500000e+02 0.000000e+00 0.000000e+00
      endloop
   endfacet
   facet normal 0.000000e+00 0.000000e+00 1.000000e+00
      outer loop
         vertex 2.500000e+02 0.000000e+00 0.000000e+00
         vertex 0.000000e+00 1.000000e+02 0.000000e+00
         vertex 0.000000e+00 0.000000e+00 0.000000e+00
      endloop
   endfacet
   facet normal 1.000000e+00 0.000000e+00 -0.000000e+00
      outer loop
         vertex 2.500000e+02 1.000000e+02 -4.000000e+03
         vertex 2.500000e+02 1.000000e+02 0.000000e+00
         vertex 2.500000e+02 0.000000e+00 -4.000000e+03
      endloop
   endfacet
   facet normal 1.000000e+00 0.000000e+00 0.000000e+00
      outer loop
         vertex 2.500000e+02 0.000000e+00 -4.000000e+03
         vertex 2.500000e+02 1.000000e+02 0.000000e+00
         vertex 2.500000e+02 0.000000e+00 0.000000e+00
      endloop
   endfacet
   facet normal 0.000000e+00 0.000000e+00 -1.000000e+00
      outer loop
         vertex 0.000000e+00 1.000000e+02 -4.000000e+03
         vertex 2.500000e+02 1.000000e+02 -4.000000e+03
         vertex 0.000000e+00 0.000000e+00 -4.000000e+03
      endloop
   endfacet
   facet normal 0.000000e+00 0.000000e+00 -1.000000e+00
      outer loop
         vertex 0.000000e+00 0.000000e+00 -4.000000e+03
         vertex 2.500000e+02 1.000000e+02 -4.000000e+03
         vertex 2.500000e+02 0.000000e+00 -4.000000e+03
      endloop
   endfacet
   facet normal 0.000000e+00 1.000000e+00 0.000000e+00
      outer loop
         vertex 2.500000e+02 1.000000e+02 0.000000e+00
         vertex 2.500000e+02 1.000000e+02 -4.000000e+03
         vertex 0.000000e+00 1.000000e+02 0.000000e+00
      endloop
   endfacet
   facet normal 0.000000e+00 1.000000e+00 0.000000e+00
      outer loop
         vertex 0.000000e+00 1.000000e+02 0.000000e+00
         vertex 2.500000e+02 1.000000e+02 -4.000000e+03
         vertex 0.000000e+00 1.000000e+02 -4.000000e+03
      endloop
   endfacet
   facet normal 0.000000e+00 -1.000000e+00 0.000000e+00
      outer loop
         vertex 2.500000e+02 0.000000e+00 -4.000000e+03
         vertex 2.500000e+02 0.000000e+00 0.000000e+00
         vertex 0.000000e+00 0.000000e+00 -4.000000e+03
      endloop
   endfacet
   facet normal 0.000000e+00 -1.000000e+00 0.000000e+00
      outer loop
         vertex 0.000000e+00 0.000000e+00 -4.000000e+03
         vertex 2.500000e+02 0.000000e+00 0.000000e+00
         vertex 0.000000e+00 0.000000e+00 0.000000e+00
      endloop
   endfacet
endsolid silo_base_Default_sldprt