solid water_zone_Default_sldprt
   facet normal -1.000000e+00 -0.000000e+00 -0.000000e+00
      outer loop
         vertex 0.000000e+00 1.000000e+02 0.000000e+00
         vertex 0.000000e+00 1.000000e+02 -1.000000e+03
         vertex 0.000000e+00 0.000000e+00 0.000000e+00
      endloop
   endfacet
   facet normal -1.000000e+00 0.000000e+00 0.000000e+00
      outer loop
         vertex 0.000000e+00 0.000000e+00 0.000000e+00
         vertex 0.000000e+00 1.000000e+02 -1.000000e+03
         vertex 0.000000e+00 0.000000e+00 -1.000000e+03
      endloop
   endfacet
   facet normal 0.000000e+00 0.000000e+00 1.000000e+00
      outer loop
         vertex 3.800000e+03 1.000000e+02 0.000000e+00
         vertex 0.000000e+00 1.000000e+02 0.000000e+00
         vertex 3.800000e+03 2.775558e-14 0.000000e+00
      endloop
   endfacet
   facet normal 0.000000e+00 0.000000e+00 1.000000e+00
      outer loop
         vertex 3.800000e+03 2.775558e-14 0.000000e+00
         vertex 0.000000e+00 1.000000e+02 0.000000e+00
         vertex 0.000000e+00 2.775558e-14 0.000000e+00
      endloop
   endfacet
   facet normal 1.000000e+00 0.000000e+00 -0.000000e+00
      outer loop
         vertex 3.800000e+03 1.000000e+02 -1.000000e+03
         vertex 3.800000e+03 1.000000e+02 0.000000e+00
         vertex 3.800000e+03 0.000000e+00 -1.000000e+03
      endloop
   endfacet
   facet normal 1.000000e+00 0.000000e+00 0.000000e+00
      outer loop
         vertex 3.800000e+03 0.000000e+00 -1.000000e+03
         vertex 3.800000e+03 1.000000e+02 0.000000e+00
         vertex 3.800000e+03 0.000000e+00 0.000000e+00
      endloop
   endfacet
   facet normal 0.000000e+00 0.000000e+00 -1.000000e+00
      outer loop
         vertex 0.000000e+00 1.000000e+02 -1.000000e+03
         vertex 3.800000e+03 1.000000e+02 -1.000000e+03
         vertex 0.000000e+00 2.775558e-14 -1.000000e+03
      endloop
   endfacet
   facet normal 0.000000e+00 0.000000e+00 -1.000000e+00
      outer loop
         vertex 0.000000e+00 2.775558e-14 -1.000000e+03
         vertex 3.800000e+03 1.000000e+02 -1.000000e+03
         vertex 3.800000e+03 2.775558e-14 -1.000000e+03
      endloop
   endfacet
   facet normal 0.000000e+00 1.000000e+00 0.000000e+00
      outer loop
         vertex 3.800000e+03 1.000000e+02 0.000000e+00
         vertex 3.800000e+03 1.000000e+02 -1.000000e+03
         vertex 0.000000e+00 1.000000e+02 0.000000e+00
      endloop
   endfacet
   facet normal 0.000000e+00 1.000000e+00 0.000000e+00
      outer loop
         vertex 0.000000e+00 1.000000e+02 0.000000e+00
         vertex 3.800000e+03 1.000000e+02 -1.000000e+03
         vertex 0.000000e+00 1.000000e+02 -1.000000e+03
      endloop
   endfacet
   facet normal 0.000000e+00 -1.000000e+00 0.000000e+00
      outer loop
         vertex 3.800000e+03 0.000000e+00 -1.000000e+03
         vertex 3.800000e+03 0.000000e+00 0.000000e+00
         vertex 0.000000e+00 0.000000e+00 -1.000000e+03
      endloop
   endfacet
   facet normal 0.000000e+00 -1.000000e+00 0.000000e+00
      outer loop
         vertex 0.000000e+00 0.000000e+00 -1.000000e+03
         vertex 3.800000e+03 0.000000e+00 0.000000e+00
         vertex 0.000000e+00 0.000000e+00 0.000000e+00
      endloop
   endfacet
endsolid water_zone_Default_sldprt