solid seedling_full_Default_sldprt
   facet normal 4.758180e-02 0.000000e+00 9.988673e-01
      outer loop
         vertex -1.465805e+01 4.703846e+01 4.895806e+01
         vertex -1.822265e+01 4.703846e+01 4.912787e+01
         vertex -1.822265e+01 -5.296154e+01 4.912787e+01
      endloop
   endfacet
   facet normal -4.758179e-02 0.000000e+00 9.988673e-01
      outer loop
         vertex -1.822265e+01 -5.296154e+01 4.912787e+01
         vertex -1.822265e+01 4.703846e+01 4.912787e+01
         vertex -2.178725e+01 -5.296154e+01 4.895806e+01
      endloop
   endfacet
   facet normal -4.758179e-02 0.000000e+00 9.988673e-01
      outer loop
         vertex -1.822265e+01 4.703846e+01 4.912787e+01
         vertex -2.178725e+01 4.703846e+01 4.895806e+01
         vertex -2.178725e+01 -5.296154e+01 4.895806e+01
      endloop
   endfacet
   facet normal -1.892512e-01 0.000000e+00 9.819287e-01
      outer loop
         vertex -2.178725e+01 -5.296154e+01 4.895806e+01
         vertex -2.178725e+01 4.703846e+01 4.895806e+01
         vertex -2.878762e+01 4.703846e+01 4.760885e+01
      endloop
   endfacet
   facet normal -1.892512e-01 0.000000e+00 9.819287e-01
      outer loop
         vertex -2.178725e+01 -5.296154e+01 4.895806e+01
         vertex -2.878762e+01 4.703846e+01 4.760885e+01
         vertex -2.878762e+01 -5.296154e+01 4.760885e+01
      endloop
   endfacet
   facet normal -3.716625e-01 0.000000e+00 9.283679e-01
      outer loop
         vertex -2.878762e+01 -5.296154e+01 4.760885e+01
         vertex -2.878762e+01 4.703846e+01 4.760885e+01
         vertex -3.540614e+01 4.703846e+01 4.495919e+01
      endloop
   endfacet
   facet normal -3.716625e-01 0.000000e+00 9.283679e-01
      outer loop
         vertex -2.878762e+01 -5.296154e+01 4.760885e+01
         vertex -3.540614e+01 4.703846e+01 4.495919e+01
         vertex -3.540614e+01 -5.296154e+01 4.495919e+01
      endloop
   endfacet
   facet normal -5.406408e-01 0.000000e+00 8.412536e-01
      outer loop
         vertex -3.540614e+01 -5.296154e+01 4.495919e+01
         vertex -3.540614e+01 4.703846e+01 4.495919e+01
         vertex -4.140361e+01 4.703846e+01 4.110486e+01
      endloop
   endfacet
   facet normal -5.406408e-01 0.000000e+00 8.412536e-01
      outer loop
         vertex -3.540614e+01 -5.296154e+01 4.495919e+01
         vertex -4.140361e+01 4.703846e+01 4.110486e+01
         vertex -4.140361e+01 -5.296154e+01 4.110486e+01
      endloop
   endfacet
   facet normal -6.900789e-01 0.000000e+00 7.237341e-01
      outer loop
         vertex -4.140361e+01 -5.296154e+01 4.110486e+01
         vertex -4.140361e+01 4.703846e+01 4.110486e+01
         vertex -4.656326e+01 4.703846e+01 3.618515e+01
      endloop
   endfacet
   facet normal -6.900789e-01 0.000000e+00 7.237341e-01
      outer loop
         vertex -4.140361e+01 -5.296154e+01 4.110486e+01
         vertex -4.656326e+01 4.703846e+01 3.618515e+01
         vertex -4.656326e+01 -5.296154e+01 3.618515e+01
      endloop
   endfacet
   facet normal -8.145760e-01 0.000000e+00 5.800569e-01
      outer loop
         vertex -4.656326e+01 -5.296154e+01 3.618515e+01
         vertex -4.656326e+01 4.703846e+01 3.618515e+01
         vertex -5.069860e+01 4.703846e+01 3.037787e+01
      endloop
   endfacet
   facet normal -8.145760e-01 0.000000e+00 5.800569e-01
      outer loop
         vertex -4.656326e+01 -5.296154e+01 3.618515e+01
         vertex -5.069860e+01 4.703846e+01 3.037787e+01
         vertex -5.069860e+01 -5.296154e+01 3.037787e+01
      endloop
   endfacet
   facet normal -9.096321e-01 0.000000e+00 4.154147e-01
      outer loop
         vertex -5.069860e+01 -5.296154e+01 3.037787e+01
         vertex -5.069860e+01 4.703846e+01 3.037787e+01
         vertex -5.366018e+01 4.703846e+01 2.389291e+01
      endloop
   endfacet
   facet normal -9.096321e-01 0.000000e+00 4.154147e-01
      outer loop
         vertex -5.069860e+01 -5.296154e+01 3.037787e+01
         vertex -5.366018e+01 4.703846e+01 2.389291e+01
         vertex -5.366018e+01 -5.296154e+01 2.389291e+01
      endloop
   endfacet
   facet normal -9.718115e-01 0.000000e+00 2.357594e-01
      outer loop
         vertex -5.366018e+01 -5.296154e+01 2.389291e+01
         vertex -5.366018e+01 4.703846e+01 2.389291e+01
         vertex -5.534095e+01 4.703846e+01 1.696467e+01
      endloop
   endfacet
   facet normal -9.718115e-01 0.000000e+00 2.357594e-01
      outer loop
         vertex -5.366018e+01 -5.296154e+01 2.389291e+01
         vertex -5.534095e+01 4.703846e+01 1.696467e+01
         vertex -5.534095e+01 -5.296154e+01 1.696467e+01
      endloop
   endfacet
   facet normal -9.988673e-01 0.000000e+00 4.758192e-02
      outer loop
         vertex -5.534095e+01 -5.296154e+01 1.696467e+01
         vertex -5.534095e+01 4.703846e+01 1.696467e+01
         vertex -5.568017e+01 4.703846e+01 9.843545e+00
      endloop
   endfacet
   facet normal -9.988673e-01 0.000000e+00 4.758192e-02
      outer loop
         vertex -5.534095e+01 -5.296154e+01 1.696467e+01
         vertex -5.568017e+01 4.703846e+01 9.843545e+00
         vertex -5.568017e+01 -5.296154e+01 9.843545e+00
      endloop
   endfacet
   facet normal -9.898214e-01 0.000000e+00 -1.423152e-01
      outer loop
         vertex -5.568017e+01 -5.296154e+01 9.843545e+00
         vertex -5.568017e+01 4.703846e+01 9.843545e+00
         vertex -5.466558e+01 4.703846e+01 2.786907e+00
      endloop
   endfacet
   facet normal -9.898214e-01 0.000000e+00 -1.423152e-01
      outer loop
         vertex -5.568017e+01 -5.296154e+01 9.843545e+00
         vertex -5.466558e+01 4.703846e+01 2.786907e+00
         vertex -5.466558e+01 -5.296154e+01 2.786907e+00
      endloop
   endfacet
   facet normal -9.450008e-01 0.000000e+00 -3.270679e-01
      outer loop
         vertex -5.466558e+01 -5.296154e+01 2.786907e+00
         vertex -5.466558e+01 4.703846e+01 2.786907e+00
         vertex -5.233385e+01 4.703846e+01 -3.950196e+00
      endloop
   endfacet
   facet normal -9.450008e-01 0.000000e+00 -3.270679e-01
      outer loop
         vertex -5.466558e+01 -5.296154e+01 2.786907e+00
         vertex -5.233385e+01 4.703846e+01 -3.950196e+00
         vertex -5.233385e+01 -5.296154e+01 -3.950196e+00
      endloop
   endfacet
   facet normal -8.660255e-01 0.000000e+00 -4.999998e-01
      outer loop
         vertex -5.233385e+01 -5.296154e+01 -3.950196e+00
         vertex -5.233385e+01 4.703846e+01 -3.950196e+00
         vertex -4.876925e+01 4.703846e+01 -1.012427e+01
      endloop
   endfacet
   facet normal -8.660255e-01 0.000000e+00 -4.999998e-01
      outer loop
         vertex -5.233385e+01 -5.296154e+01 -3.950196e+00
         vertex -4.876925e+01 4.703846e+01 -1.012427e+01
         vertex -4.876925e+01 -5.296154e+01 -1.012427e+01
      endloop
   endfacet
   facet normal -7.557496e-01 0.000000e+00 -6.548607e-01
      outer loop
         vertex -4.876925e+01 -5.296154e+01 -1.012427e+01
         vertex -4.876925e+01 4.703846e+01 -1.012427e+01
         vertex -4.410061e+01 4.703846e+01 -1.551216e+01
      endloop
   endfacet
   facet normal -7.557496e-01 0.000000e+00 -6.548607e-01
      outer loop
         vertex -4.876925e+01 -5.296154e+01 -1.012427e+01
         vertex -4.410061e+01 4.703846e+01 -1.551216e+01
         vertex -4.410061e+01 -5.296154e+01 -1.551216e+01
      endloop
   endfacet
   facet normal -6.181588e-01 0.000000e+00 -7.860533e-01
      outer loop
         vertex -4.410061e+01 -5.296154e+01 -1.551216e+01
         vertex -4.410061e+01 4.703846e+01 -1.551216e+01
         vertex -3.849668e+01 4.703846e+01 -1.991914e+01
      endloop
   endfacet
   facet normal -6.181588e-01 0.000000e+00 -7.860533e-01
      outer loop
         vertex -4.410061e+01 -5.296154e+01 -1.551216e+01
         vertex -3.849668e+01 4.703846e+01 -1.991914e+01
         vertex -3.849668e+01 -5.296154e+01 -1.991914e+01
      endloop
   endfacet
   facet normal -4.582268e-01 0.000000e+00 -8.888353e-01
      outer loop
         vertex -3.849668e+01 -5.296154e+01 -1.991914e+01
         vertex -3.849668e+01 4.703846e+01 -1.991914e+01
         vertex -3.215999e+01 4.703846e+01 -2.318593e+01
      endloop
   endfacet
   facet normal -4.582268e-01 0.000000e+00 -8.888353e-01
      outer loop
         vertex -3.849668e+01 -5.296154e+01 -1.991914e+01
         vertex -3.215999e+01 4.703846e+01 -2.318593e+01
         vertex -3.215999e+01 -5.296154e+01 -2.318593e+01
      endloop
   endfacet
   facet normal -2.817323e-01 0.000000e+00 -9.594930e-01
      outer loop
         vertex -3.215999e+01 -5.296154e+01 -2.318593e+01
         vertex -3.215999e+01 4.703846e+01 -2.318593e+01
         vertex -2.531957e+01 4.703846e+01 -2.519446e+01
      endloop
   endfacet
   facet normal -2.817323e-01 0.000000e+00 -9.594930e-01
      outer loop
         vertex -3.215999e+01 -5.296154e+01 -2.318593e+01
         vertex -2.531957e+01 4.703846e+01 -2.519446e+01
         vertex -2.531957e+01 -5.296154e+01 -2.519446e+01
      endloop
   endfacet
   facet normal -9.505620e-02 0.000000e+00 -9.954719e-01
      outer loop
         vertex -2.531957e+01 -5.296154e+01 -2.519446e+01
         vertex -2.531957e+01 4.703846e+01 -2.519446e+01
         vertex -1.822265e+01 4.703846e+01 -2.587213e+01
      endloop
   endfacet
   facet normal -9.505620e-02 0.000000e+00 -9.954719e-01
      outer loop
         vertex -2.531957e+01 -5.296154e+01 -2.519446e+01
         vertex -1.822265e+01 4.703846e+01 -2.587213e+01
         vertex -1.822265e+01 -5.296154e+01 -2.587213e+01
      endloop
   endfacet
   facet normal 9.505621e-02 0.000000e+00 -9.954719e-01
      outer loop
         vertex -1.822265e+01 -5.296154e+01 -2.587213e+01
         vertex -1.822265e+01 4.703846e+01 -2.587213e+01
         vertex -1.112573e+01 4.703846e+01 -2.519446e+01
      endloop
   endfacet
   facet normal 9.505621e-02 0.000000e+00 -9.954719e-01
      outer loop
         vertex -1.822265e+01 -5.296154e+01 -2.587213e+01
         vertex -1.112573e+01 4.703846e+01 -2.519446e+01
         vertex -1.112573e+01 -5.296154e+01 -2.519446e+01
      endloop
   endfacet
   facet normal 2.817324e-01 0.000000e+00 -9.594930e-01
      outer loop
         vertex -1.112573e+01 -5.296154e+01 -2.519446e+01
         vertex -1.112573e+01 4.703846e+01 -2.519446e+01
         vertex -4.285306e+00 4.703846e+01 -2.318593e+01
      endloop
   endfacet
   facet normal 2.817324e-01 0.000000e+00 -9.594930e-01
      outer loop
         vertex -1.112573e+01 -5.296154e+01 -2.519446e+01
         vertex -4.285306e+00 4.703846e+01 -2.318593e+01
         vertex -4.285306e+00 -5.296154e+01 -2.318593e+01
      endloop
   endfacet
   facet normal 4.582266e-01 0.000000e+00 -8.888354e-01
      outer loop
         vertex -4.285306e+00 -5.296154e+01 -2.318593e+01
         vertex -4.285306e+00 4.703846e+01 -2.318593e+01
         vertex 2.051383e+00 4.703846e+01 -1.991914e+01
      endloop
   endfacet
   facet normal 4.582266e-01 0.000000e+00 -8.888354e-01
      outer loop
         vertex -4.285306e+00 -5.296154e+01 -2.318593e+01
         vertex 2.051383e+00 4.703846e+01 -1.991914e+01
         vertex 2.051383e+00 -5.296154e+01 -1.991914e+01
      endloop
   endfacet
   facet normal 6.181590e-01 0.000000e+00 -7.860531e-01
      outer loop
         vertex 2.051383e+00 -5.296154e+01 -1.991914e+01
         vertex 2.051383e+00 4.703846e+01 -1.991914e+01
         vertex 7.655315e+00 4.703846e+01 -1.551216e+01
      endloop
   endfacet
   facet normal 6.181590e-01 0.000000e+00 -7.860531e-01
      outer loop
         vertex 2.051383e+00 -5.296154e+01 -1.991914e+01
         vertex 7.655315e+00 4.703846e+01 -1.551216e+01
         vertex 7.655315e+00 -5.296154e+01 -1.551216e+01
      endloop
   endfacet
   facet normal 7.557496e-01 0.000000e+00 -6.548608e-01
      outer loop
         vertex 7.655315e+00 -5.296154e+01 -1.551216e+01
         vertex 7.655315e+00 4.703846e+01 -1.551216e+01
         vertex 1.232395e+01 4.703846e+01 -1.012427e+01
      endloop
   endfacet
   facet normal 7.557496e-01 0.000000e+00 -6.548608e-01
      outer loop
         vertex 7.655315e+00 -5.296154e+01 -1.551216e+01
         vertex 1.232395e+01 4.703846e+01 -1.012427e+01
         vertex 1.232395e+01 -5.296154e+01 -1.012427e+01
      endloop
   endfacet
   facet normal 8.660255e-01 0.000000e+00 -4.999999e-01
      outer loop
         vertex 1.232395e+01 -5.296154e+01 -1.012427e+01
         vertex 1.232395e+01 4.703846e+01 -1.012427e+01
         vertex 1.588855e+01 4.703846e+01 -3.950196e+00
      endloop
   endfacet
   facet normal 8.660255e-01 0.000000e+00 -4.999999e-01
      outer loop
         vertex 1.232395e+01 -5.296154e+01 -1.012427e+01
         vertex 1.588855e+01 4.703846e+01 -3.950196e+00
         vertex 1.588855e+01 -5.296154e+01 -3.950196e+00
      endloop
   endfacet
   facet normal 9.450007e-01 0.000000e+00 -3.270682e-01
      outer loop
         vertex 1.588855e+01 -5.296154e+01 -3.950196e+00
         vertex 1.588855e+01 4.703846e+01 -3.950196e+00
         vertex 1.822029e+01 4.703846e+01 2.786907e+00
      endloop
   endfacet
   facet normal 9.450007e-01 0.000000e+00 -3.270682e-01
      outer loop
         vertex 1.588855e+01 -5.296154e+01 -3.950196e+00
         vertex 1.822029e+01 4.703846e+01 2.786907e+00
         vertex 1.822029e+01 -5.296154e+01 2.786907e+00
      endloop
   endfacet
   facet normal 9.898215e-01 0.000000e+00 -1.423147e-01
      outer loop
         vertex 1.822029e+01 -5.296154e+01 2.786907e+00
         vertex 1.822029e+01 4.703846e+01 2.786907e+00
         vertex 1.923488e+01 4.703846e+01 9.843545e+00
      endloop
   endfacet
   facet normal 9.898215e-01 0.000000e+00 -1.423147e-01
      outer loop
         vertex 1.822029e+01 -5.296154e+01 2.786907e+00
         vertex 1.923488e+01 4.703846e+01 9.843545e+00
         vertex 1.923488e+01 -5.296154e+01 9.843545e+00
      endloop
   endfacet
   facet normal 9.988673e-01 -0.000000e+00 4.758192e-02
      outer loop
         vertex 1.923488e+01 -5.296154e+01 9.843545e+00
         vertex 1.923488e+01 4.703846e+01 9.843545e+00
         vertex 1.889566e+01 4.703846e+01 1.696467e+01
      endloop
   endfacet
   facet normal 9.988673e-01 0.000000e+00 4.758192e-02
      outer loop
         vertex 1.923488e+01 -5.296154e+01 9.843545e+00
         vertex 1.889566e+01 4.703846e+01 1.696467e+01
         vertex 1.889566e+01 -5.296154e+01 1.696467e+01
      endloop
   endfacet
   facet normal 9.718116e-01 -0.000000e+00 2.357589e-01
      outer loop
         vertex 1.889566e+01 -5.296154e+01 1.696467e+01
         vertex 1.889566e+01 4.703846e+01 1.696467e+01
         vertex 1.721488e+01 4.703846e+01 2.389291e+01
      endloop
   endfacet
   facet normal 9.718116e-01 0.000000e+00 2.357589e-01
      outer loop
         vertex 1.889566e+01 -5.296154e+01 1.696467e+01
         vertex 1.721488e+01 4.703846e+01 2.389291e+01
         vertex 1.721488e+01 -5.296154e+01 2.389291e+01
      endloop
   endfacet
   facet normal 9.096320e-01 -0.000000e+00 4.154150e-01
      outer loop
         vertex 1.721488e+01 -5.296154e+01 2.389291e+01
         vertex 1.721488e+01 4.703846e+01 2.389291e+01
         vertex 1.425331e+01 4.703846e+01 3.037787e+01
      endloop
   endfacet
   facet normal 9.096320e-01 0.000000e+00 4.154150e-01
      outer loop
         vertex 1.721488e+01 -5.296154e+01 2.389291e+01
         vertex 1.425331e+01 4.703846e+01 3.037787e+01
         vertex 1.425331e+01 -5.296154e+01 3.037787e+01
      endloop
   endfacet
   facet normal 8.145760e-01 -0.000000e+00 5.800569e-01
      outer loop
         vertex 1.425331e+01 -5.296154e+01 3.037787e+01
         vertex 1.425331e+01 4.703846e+01 3.037787e+01
         vertex 1.011796e+01 4.703846e+01 3.618515e+01
      endloop
   endfacet
   facet normal 8.145760e-01 0.000000e+00 5.800569e-01
      outer loop
         vertex 1.425331e+01 -5.296154e+01 3.037787e+01
         vertex 1.011796e+01 4.703846e+01 3.618515e+01
         vertex 1.011796e+01 -5.296154e+01 3.618515e+01
      endloop
   endfacet
   facet normal 6.900789e-01 -0.000000e+00 7.237342e-01
      outer loop
         vertex 1.011796e+01 -5.296154e+01 3.618515e+01
         vertex 1.011796e+01 4.703846e+01 3.618515e+01
         vertex 4.958314e+00 4.703846e+01 4.110486e+01
      endloop
   endfacet
   facet normal 6.900789e-01 0.000000e+00 7.237342e-01
      outer loop
         vertex 1.011796e+01 -5.296154e+01 3.618515e+01
         vertex 4.958314e+00 4.703846e+01 4.110486e+01
         vertex 4.958314e+00 -5.296154e+01 4.110486e+01
      endloop
   endfacet
   facet normal 5.406408e-01 -0.000000e+00 8.412535e-01
      outer loop
         vertex 4.958314e+00 -5.296154e+01 4.110486e+01
         vertex 4.958314e+00 4.703846e+01 4.110486e+01
         vertex -1.039153e+00 4.703846e+01 4.495919e+01
      endloop
   endfacet
   facet normal 5.406408e-01 0.000000e+00 8.412535e-01
      outer loop
         vertex 4.958314e+00 -5.296154e+01 4.110486e+01
         vertex -1.039153e+00 4.703846e+01 4.495919e+01
         vertex -1.039153e+00 -5.296154e+01 4.495919e+01
      endloop
   endfacet
   facet normal 3.716625e-01 -0.000000e+00 9.283679e-01
      outer loop
         vertex -1.039153e+00 -5.296154e+01 4.495919e+01
         vertex -1.039153e+00 4.703846e+01 4.495919e+01
         vertex -7.657677e+00 4.703846e+01 4.760885e+01
      endloop
   endfacet
   facet normal 3.716625e-01 0.000000e+00 9.283679e-01
      outer loop
         vertex -1.039153e+00 -5.296154e+01 4.495919e+01
         vertex -7.657677e+00 4.703846e+01 4.760885e+01
         vertex -7.657677e+00 -5.296154e+01 4.760885e+01
      endloop
   endfacet
   facet normal 1.892513e-01 -0.000000e+00 9.819287e-01
      outer loop
         vertex -7.657677e+00 -5.296154e+01 4.760885e+01
         vertex -7.657677e+00 4.703846e+01 4.760885e+01
         vertex -1.465805e+01 4.703846e+01 4.895806e+01
      endloop
   endfacet
   facet normal 1.892513e-01 0.000000e+00 9.819287e-01
      outer loop
         vertex -7.657677e+00 -5.296154e+01 4.760885e+01
         vertex -1.465805e+01 4.703846e+01 4.895806e+01
         vertex -1.465805e+01 -5.296154e+01 4.895806e+01
      endloop
   endfacet
   facet normal 4.758180e-02 -0.000000e+00 9.988673e-01
      outer loop
         vertex -1.465805e+01 -5.296154e+01 4.895806e+01
         vertex -1.465805e+01 4.703846e+01 4.895806e+01
         vertex -1.822265e+01 -5.296154e+01 4.912787e+01
      endloop
   endfacet
   facet normal 0.000000e+00 1.000000e+00 0.000000e+00
      outer loop
         vertex -1.822265e+01 4.703846e+01 4.912787e+01
         vertex -1.465805e+01 4.703846e+01 4.895806e+01
         vertex -1.822265e+01 4.703846e+01 1.162787e+01
      endloop
   endfacet
   facet normal -0.000000e+00 1.000000e+00 0.000000e+00
      outer loop
         vertex -3.540614e+01 4.703846e+01 4.495919e+01
         vertex -2.878762e+01 4.703846e+01 4.760885e+01
         vertex -1.822265e+01 4.703846e+01 1.162787e+01
      endloop
   endfacet
   facet normal 0.000000e+00 1.000000e+00 0.000000e+00
      outer loop
         vertex -1.822265e+01 4.703846e+01 1.162787e+01
         vertex -2.878762e+01 4.703846e+01 4.760885e+01
         vertex -2.178725e+01 4.703846e+01 4.895806e+01
      endloop
   endfacet
   facet normal 0.000000e+00 1.000000e+00 -0.000000e+00
      outer loop
         vertex -1.822265e+01 4.703846e+01 1.162787e+01
         vertex -2.178725e+01 4.703846e+01 4.895806e+01
         vertex -1.822265e+01 4.703846e+01 4.912787e+01
      endloop
   endfacet
   facet normal -0.000000e+00 1.000000e+00 0.000000e+00
      outer loop
         vertex -5.069860e+01 4.703846e+01 3.037787e+01
         vertex -4.656326e+01 4.703846e+01 3.618515e+01
         vertex -1.822265e+01 4.703846e+01 1.162787e+01
      endloop
   endfacet
   facet normal 0.000000e+00 1.000000e+00 0.000000e+00
      outer loop
         vertex -1.822265e+01 4.703846e+01 1.162787e+01
         vertex -4.656326e+01 4.703846e+01 3.618515e+01
         vertex -4.140361e+01 4.703846e+01 4.110486e+01
      endloop
   endfacet
   facet normal 0.000000e+00 1.000000e+00 0.000000e+00
      outer loop
         vertex -1.822265e+01 4.703846e+01 1.162787e+01
         vertex -4.140361e+01 4.703846e+01 4.110486e+01
         vertex -3.540614e+01 4.703846e+01 4.495919e+01
      endloop
   endfacet
   facet normal 0.000000e+00 1.000000e+00 0.000000e+00
      outer loop
         vertex -5.568017e+01 4.703846e+01 9.843545e+00
         vertex -5.534095e+01 4.703846e+01 1.696467e+01
         vertex -1.822265e+01 4.703846e+01 1.162787e+01
      endloop
   endfacet
   facet normal 0.000000e+00 1.000000e+00 0.000000e+00
      outer loop
         vertex -1.822265e+01 4.703846e+01 1.162787e+01
         vertex -5.534095e+01 4.703846e+01 1.696467e+01
         vertex -5.366018e+01 4.703846e+01 2.389291e+01
      endloop
   endfacet
   facet normal 0.000000e+00 1.000000e+00 0.000000e+00
      outer loop
         vertex -1.822265e+01 4.703846e+01 1.162787e+01
         vertex -5.366018e+01 4.703846e+01 2.389291e+01
         vertex -5.069860e+01 4.703846e+01 3.037787e+01
      endloop
   endfacet
   facet normal 0.000000e+00 1.000000e+00 -0.000000e+00
      outer loop
         vertex -4.876925e+01 4.703846e+01 -1.012427e+01
         vertex -5.233385e+01 4.703846e+01 -3.950196e+00
         vertex -1.822265e+01 4.703846e+01 1.162787e+01
      endloop
   endfacet
   facet normal 0.000000e+00 1.000000e+00 0.000000e+00
      outer loop
         vertex -1.822265e+01 4.703846e+01 1.162787e+01
         vertex -5.233385e+01 4.703846e+01 -3.950196e+00
         vertex -5.466558e+01 4.703846e+01 2.786907e+00
      endloop
   endfacet
   facet normal 0.000000e+00 1.000000e+00 0.000000e+00
      outer loop
         vertex -1.822265e+01 4.703846e+01 1.162787e+01
         vertex -5.466558e+01 4.703846e+01 2.786907e+00
         vertex -5.568017e+01 4.703846e+01 9.843545e+00
      endloop
   endfacet
   facet normal 0.000000e+00 1.000000e+00 -0.000000e+00
      outer loop
         vertex -3.215999e+01 4.703846e+01 -2.318593e+01
         vertex -3.849668e+01 4.703846e+01 -1.991914e+01
         vertex -1.822265e+01 4.703846e+01 1.162787e+01
      endloop
   endfacet
   facet normal 0.000000e+00 1.000000e+00 0.000000e+00
      outer loop
         vertex -1.822265e+01 4.703846e+01 1.162787e+01
         vertex -3.849668e+01 4.703846e+01 -1.991914e+01
         vertex -4.410061e+01 4.703846e+01 -1.551216e+01
      endloop
   endfacet
   facet normal 0.000000e+00 1.000000e+00 0.000000e+00
      outer loop
         vertex -1.822265e+01 4.703846e+01 1.162787e+01
         vertex -4.410061e+01 4.703846e+01 -1.551216e+01
         vertex -4.876925e+01 4.703846e+01 -1.012427e+01
      endloop
   endfacet
   facet normal 0.000000e+00 1.000000e+00 0.000000e+00
      outer loop
         vertex -1.112573e+01 4.703846e+01 -2.519446e+01
         vertex -1.822265e+01 4.703846e+01 -2.587213e+01
         vertex -1.822265e+01 4.703846e+01 1.162787e+01
      endloop
   endfacet
   facet normal 0.000000e+00 1.000000e+00 0.000000e+00
      outer loop
         vertex -1.822265e+01 4.703846e+01 1.162787e+01
         vertex -1.822265e+01 4.703846e+01 -2.587213e+01
         vertex -2.531957e+01 4.703846e+01 -2.519446e+01
      endloop
   endfacet
   facet normal 0.000000e+00 1.000000e+00 0.000000e+00
      outer loop
         vertex -1.822265e+01 4.703846e+01 1.162787e+01
         vertex -2.531957e+01 4.703846e+01 -2.519446e+01
         vertex -3.215999e+01 4.703846e+01 -2.318593e+01
      endloop
   endfacet
   facet normal 0.000000e+00 1.000000e+00 0.000000e+00
      outer loop
         vertex 7.655315e+00 4.703846e+01 -1.551216e+01
         vertex 2.051383e+00 4.703846e+01 -1.991914e+01
         vertex -1.822265e+01 4.703846e+01 1.162787e+01
      endloop
   endfacet
   facet normal 0.000000e+00 1.000000e+00 0.000000e+00
      outer loop
         vertex -1.822265e+01 4.703846e+01 1.162787e+01
         vertex 2.051383e+00 4.703846e+01 -1.991914e+01
         vertex -4.285306e+00 4.703846e+01 -2.318593e+01
      endloop
   endfacet
   facet normal 0.000000e+00 1.000000e+00 0.000000e+00
      outer loop
         vertex -1.822265e+01 4.703846e+01 1.162787e+01
         vertex -4.285306e+00 4.703846e+01 -2.318593e+01
         vertex -1.112573e+01 4.703846e+01 -2.519446e+01
      endloop
   endfacet
   facet normal 0.000000e+00 1.000000e+00 0.000000e+00
      outer loop
         vertex 1.822029e+01 4.703846e+01 2.786907e+00
         vertex 1.588855e+01 4.703846e+01 -3.950196e+00
         vertex -1.822265e+01 4.703846e+01 1.162787e+01
      endloop
   endfacet
   facet normal 0.000000e+00 1.000000e+00 0.000000e+00
      outer loop
         vertex -1.822265e+01 4.703846e+01 1.162787e+01
         vertex 1.588855e+01 4.703846e+01 -3.950196e+00
         vertex 1.232395e+01 4.703846e+01 -1.012427e+01
      endloop
   endfacet
   facet normal 0.000000e+00 1.000000e+00 0.000000e+00
      outer loop
         vertex -1.822265e+01 4.703846e+01 1.162787e+01
         vertex 1.232395e+01 4.703846e+01 -1.012427e+01
         vertex 7.655315e+00 4.703846e+01 -1.551216e+01
      endloop
   endfacet
   facet normal 0.000000e+00 1.000000e+00 0.000000e+00
      outer loop
         vertex 1.721488e+01 4.703846e+01 2.389291e+01
         vertex 1.889566e+01 4.703846e+01 1.696467e+01
         vertex -1.822265e+01 4.703846e+01 1.162787e+01
      endloop
   endfacet
   facet normal -0.000000e+00 1.000000e+00 0.000000e+00
      outer loop
         vertex -1.822265e+01 4.703846e+01 1.162787e+01
         vertex 1.889566e+01 4.703846e+01 1.696467e+01
         vertex 1.923488e+01 4.703846e+01 9.843545e+00
      endloop
   endfacet
   facet normal 0.000000e+00 1.000000e+00 0.000000e+00
      outer loop
         vertex -1.822265e+01 4.703846e+01 1.162787e+01
         vertex 1.923488e+01 4.703846e+01 9.843545e+00
         vertex 1.822029e+01 4.703846e+01 2.786907e+00
      endloop
   endfacet
   facet normal 0.000000e+00 1.000000e+00 0.000000e+00
      outer loop
         vertex 4.958314e+00 4.703846e+01 4.110486e+01
         vertex 1.011796e+01 4.703846e+01 3.618515e+01
         vertex -1.822265e+01 4.703846e+01 1.162787e+01
      endloop
   endfacet
   facet normal 0.000000e+00 1.000000e+00 0.000000e+00
      outer loop
         vertex -1.822265e+01 4.703846e+01 1.162787e+01
         vertex 1.011796e+01 4.703846e+01 3.618515e+01
         vertex 1.425331e+01 4.703846e+01 3.037787e+01
      endloop
   endfacet
   facet normal 0.000000e+00 1.000000e+00 0.000000e+00
      outer loop
         vertex -1.822265e+01 4.703846e+01 1.162787e+01
         vertex 1.425331e+01 4.703846e+01 3.037787e+01
         vertex 1.721488e+01 4.703846e+01 2.389291e+01
      endloop
   endfacet
   facet normal 0.000000e+00 1.000000e+00 0.000000e+00
      outer loop
         vertex -1.465805e+01 4.703846e+01 4.895806e+01
         vertex -7.657677e+00 4.703846e+01 4.760885e+01
         vertex -1.822265e+01 4.703846e+01 1.162787e+01
      endloop
   endfacet
   facet normal 0.000000e+00 1.000000e+00 0.000000e+00
      outer loop
         vertex -1.822265e+01 4.703846e+01 1.162787e+01
         vertex -7.657677e+00 4.703846e+01 4.760885e+01
         vertex -1.039153e+00 4.703846e+01 4.495919e+01
      endloop
   endfacet
   facet normal 0.000000e+00 1.000000e+00 0.000000e+00
      outer loop
         vertex -1.822265e+01 4.703846e+01 1.162787e+01
         vertex -1.039153e+00 4.703846e+01 4.495919e+01
         vertex 4.958314e+00 4.703846e+01 4.110486e+01
      endloop
   endfacet
   facet normal 0.000000e+00 -1.000000e+00 -0.000000e+00
      outer loop
         vertex -1.822265e+01 -5.296154e+01 4.912787e+01
         vertex -2.178725e+01 -5.296154e+01 4.895806e+01
         vertex -1.822265e+01 -5.296154e+01 1.162787e+01
      endloop
   endfacet
   facet normal -0.000000e+00 -1.000000e+00 0.000000e+00
      outer loop
         vertex -1.039153e+00 -5.296154e+01 4.495919e+01
         vertex -7.657677e+00 -5.296154e+01 4.760885e+01
         vertex -1.822265e+01 -5.296154e+01 1.162787e+01
      endloop
   endfacet
   facet normal 0.000000e+00 -1.000000e+00 0.000000e+00
      outer loop
         vertex -1.822265e+01 -5.296154e+01 1.162787e+01
         vertex -7.657677e+00 -5.296154e+01 4.760885e+01
         vertex -1.465805e+01 -5.296154e+01 4.895806e+01
      endloop
   endfacet
   facet normal 0.000000e+00 -1.000000e+00 0.000000e+00
      outer loop
         vertex -1.822265e+01 -5.296154e+01 1.162787e+01
         vertex -1.465805e+01 -5.296154e+01 4.895806e+01
         vertex -1.822265e+01 -5.296154e+01 4.912787e+01
      endloop
   endfacet
   facet normal -0.000000e+00 -1.000000e+00 0.000000e+00
      outer loop
         vertex 1.425331e+01 -5.296154e+01 3.037787e+01
         vertex 1.011796e+01 -5.296154e+01 3.618515e+01
         vertex -1.822265e+01 -5.296154e+01 1.162787e+01
      endloop
   endfacet
   facet normal 0.000000e+00 -1.000000e+00 0.000000e+00
      outer loop
         vertex -1.822265e+01 -5.296154e+01 1.162787e+01
         vertex 1.011796e+01 -5.296154e+01 3.618515e+01
         vertex 4.958314e+00 -5.296154e+01 4.110486e+01
      endloop
   endfacet
   facet normal 0.000000e+00 -1.000000e+00 0.000000e+00
      outer loop
         vertex -1.822265e+01 -5.296154e+01 1.162787e+01
         vertex 4.958314e+00 -5.296154e+01 4.110486e+01
         vertex -1.039153e+00 -5.296154e+01 4.495919e+01
      endloop
   endfacet
   facet normal 0.000000e+00 -1.000000e+00 0.000000e+00
      outer loop
         vertex 1.923488e+01 -5.296154e+01 9.843545e+00
         vertex 1.889566e+01 -5.296154e+01 1.696467e+01
         vertex -1.822265e+01 -5.296154e+01 1.162787e+01
      endloop
   endfacet
   facet normal 0.000000e+00 -1.000000e+00 0.000000e+00
      outer loop
         vertex -1.822265e+01 -5.296154e+01 1.162787e+01
         vertex 1.889566e+01 -5.296154e+01 1.696467e+01
         vertex 1.721488e+01 -5.296154e+01 2.389291e+01
      endloop
   endfacet
   facet normal 0.000000e+00 -1.000000e+00 0.000000e+00
      outer loop
         vertex -1.822265e+01 -5.296154e+01 1.162787e+01
         vertex 1.721488e+01 -5.296154e+01 2.389291e+01
         vertex 1.425331e+01 -5.296154e+01 3.037787e+01
      endloop
   endfacet
   facet normal 0.000000e+00 -1.000000e+00 0.000000e+00
      outer loop
         vertex 1.232395e+01 -5.296154e+01 -1.012427e+01
         vertex 1.588855e+01 -5.296154e+01 -3.950196e+00
         vertex -1.822265e+01 -5.296154e+01 1.162787e+01
      endloop
   endfacet
   facet normal 0.000000e+00 -1.000000e+00 0.000000e+00
      outer loop
         vertex -1.822265e+01 -5.296154e+01 1.162787e+01
         vertex 1.588855e+01 -5.296154e+01 -3.950196e+00
         vertex 1.822029e+01 -5.296154e+01 2.786907e+00
      endloop
   endfacet
   facet normal 0.000000e+00 -1.000000e+00 0.000000e+00
      outer loop
         vertex -1.822265e+01 -5.296154e+01 1.162787e+01
         vertex 1.822029e+01 -5.296154e+01 2.786907e+00
         vertex 1.923488e+01 -5.296154e+01 9.843545e+00
      endloop
   endfacet
   facet normal 0.000000e+00 -1.000000e+00 0.000000e+00
      outer loop
         vertex -4.285306e+00 -5.296154e+01 -2.318593e+01
         vertex 2.051383e+00 -5.296154e+01 -1.991914e+01
         vertex -1.822265e+01 -5.296154e+01 1.162787e+01
      endloop
   endfacet
   facet normal 0.000000e+00 -1.000000e+00 0.000000e+00
      outer loop
         vertex -1.822265e+01 -5.296154e+01 1.162787e+01
         vertex 2.051383e+00 -5.296154e+01 -1.991914e+01
         vertex 7.655315e+00 -5.296154e+01 -1.551216e+01
      endloop
   endfacet
   facet normal 0.000000e+00 -1.000000e+00 0.000000e+00
      outer loop
         vertex -1.822265e+01 -5.296154e+01 1.162787e+01
         vertex 7.655315e+00 -5.296154e+01 -1.551216e+01
         vertex 1.232395e+01 -5.296154e+01 -1.012427e+01
      endloop
   endfacet
   facet normal 0.000000e+00 -1.000000e+00 0.000000e+00
      outer loop
         vertex -2.531957e+01 -5.296154e+01 -2.519446e+01
         vertex -1.822265e+01 -5.296154e+01 -2.587213e+01
         vertex -1.822265e+01 -5.296154e+01 1.162787e+01
      endloop
   endfacet
   facet normal 0.000000e+00 -1.000000e+00 0.000000e+00
      outer loop
         vertex -1.822265e+01 -5.296154e+01 1.162787e+01
         vertex -1.822265e+01 -5.296154e+01 -2.587213e+01
         vertex -1.112573e+01 -5.296154e+01 -2.519446e+01
      endloop
   endfacet
   facet normal 0.000000e+00 -1.000000e+00 0.000000e+00
      outer loop
         vertex -1.822265e+01 -5.296154e+01 1.162787e+01
         vertex -1.112573e+01 -5.296154e+01 -2.519446e+01
         vertex -4.285306e+00 -5.296154e+01 -2.318593e+01
      endloop
   endfacet
   facet normal 0.000000e+00 -1.000000e+00 0.000000e+00
      outer loop
         vertex -4.410061e+01 -5.296154e+01 -1.551216e+01
         vertex -3.849668e+01 -5.296154e+01 -1.991914e+01
         vertex -1.822265e+01 -5.296154e+01 1.162787e+01
      endloop
   endfacet
   facet normal 0.000000e+00 -1.000000e+00 0.000000e+00
      outer loop
         vertex -1.822265e+01 -5.296154e+01 1.162787e+01
         vertex -3.849668e+01 -5.296154e+01 -1.991914e+01
         vertex -3.215999e+01 -5.296154e+01 -2.318593e+01
      endloop
   endfacet
   facet normal 0.000000e+00 -1.000000e+00 0.000000e+00
      outer loop
         vertex -1.822265e+01 -5.296154e+01 1.162787e+01
         vertex -3.215999e+01 -5.296154e+01 -2.318593e+01
         vertex -2.531957e+01 -5.296154e+01 -2.519446e+01
      endloop
   endfacet
   facet normal 0.000000e+00 -1.000000e+00 0.000000e+00
      outer loop
         vertex -5.466558e+01 -5.296154e+01 2.786907e+00
         vertex -5.233385e+01 -5.296154e+01 -3.950196e+00
         vertex -1.822265e+01 -5.296154e+01 1.162787e+01
      endloop
   endfacet
   facet normal 0.000000e+00 -1.000000e+00 0.000000e+00
      outer loop
         vertex -1.822265e+01 -5.296154e+01 1.162787e+01
         vertex -5.233385e+01 -5.296154e+01 -3.950196e+00
         vertex -4.876925e+01 -5.296154e+01 -1.012427e+01
      endloop
   endfacet
   facet normal 0.000000e+00 -1.000000e+00 0.000000e+00
      outer loop
         vertex -1.822265e+01 -5.296154e+01 1.162787e+01
         vertex -4.876925e+01 -5.296154e+01 -1.012427e+01
         vertex -4.410061e+01 -5.296154e+01 -1.551216e+01
      endloop
   endfacet
   facet normal 0.000000e+00 -1.000000e+00 -0.000000e+00
      outer loop
         vertex -5.366018e+01 -5.296154e+01 2.389291e+01
         vertex -5.534095e+01 -5.296154e+01 1.696467e+01
         vertex -1.822265e+01 -5.296154e+01 1.162787e+01
      endloop
   endfacet
   facet normal -0.000000e+00 -1.000000e+00 0.000000e+00
      outer loop
         vertex -1.822265e+01 -5.296154e+01 1.162787e+01
         vertex -5.534095e+01 -5.296154e+01 1.696467e+01
         vertex -5.568017e+01 -5.296154e+01 9.843545e+00
      endloop
   endfacet
   facet normal 0.000000e+00 -1.000000e+00 0.000000e+00
      outer loop
         vertex -1.822265e+01 -5.296154e+01 1.162787e+01
         vertex -5.568017e+01 -5.296154e+01 9.843545e+00
         vertex -5.466558e+01 -5.296154e+01 2.786907e+00
      endloop
   endfacet
   facet normal 0.000000e+00 -1.000000e+00 -0.000000e+00
      outer loop
         vertex -4.140361e+01 -5.296154e+01 4.110486e+01
         vertex -4.656326e+01 -5.296154e+01 3.618515e+01
         vertex -1.822265e+01 -5.296154e+01 1.162787e+01
      endloop
   endfacet
   facet normal 0.000000e+00 -1.000000e+00 0.000000e+00
      outer loop
         vertex -1.822265e+01 -5.296154e+01 1.162787e+01
         vertex -4.656326e+01 -5.296154e+01 3.618515e+01
         vertex -5.069860e+01 -5.296154e+01 3.037787e+01
      endloop
   endfacet
   facet normal 0.000000e+00 -1.000000e+00 0.000000e+00
      outer loop
         vertex -1.822265e+01 -5.296154e+01 1.162787e+01
         vertex -5.069860e+01 -5.296154e+01 3.037787e+01
         vertex -5.366018e+01 -5.296154e+01 2.389291e+01
      endloop
   endfacet
   facet normal 0.000000e+00 -1.000000e+00 -0.000000e+00
      outer loop
         vertex -2.178725e+01 -5.296154e+01 4.895806e+01
         vertex -2.878762e+01 -5.296154e+01 4.760885e+01
         vertex -1.822265e+01 -5.296154e+01 1.162787e+01
      endloop
   endfacet
   facet normal 0.000000e+00 -1.000000e+00 0.000000e+00
      outer loop
         vertex -1.822265e+01 -5.296154e+01 1.162787e+01
         vertex -2.878762e+01 -5.296154e+01 4.760885e+01
         vertex -3.540614e+01 -5.296154e+01 4.495919e+01
      endloop
   endfacet
   facet normal 0.000000e+00 -1.000000e+00 0.000000e+00
      outer loop
         vertex -1.822265e+01 -5.296154e+01 1.162787e+01
         vertex -3.540614e+01 -5.296154e+01 4.495919e+01
         vertex -4.140361e+01 -5.296154e+01 4.110486e+01
      endloop
   endfacet
   facet normal 7.472983e-02 0.000000e+00 9.972038e-01
      outer loop
         vertex -1.509276e+01 2.470385e+02 3.239331e+01
         vertex -1.822265e+01 2.470385e+02 3.262787e+01
         vertex -1.822265e+01 4.703846e+01 3.262787e+01
      endloop
   endfacet
   facet normal -7.472978e-02 0.000000e+00 9.972038e-01
      outer loop
         vertex -1.822265e+01 4.703846e+01 3.262787e+01
         vertex -1.822265e+01 2.470385e+02 3.262787e+01
         vertex -2.135254e+01 4.703846e+01 3.239331e+01
      endloop
   endfacet
   facet normal -7.472978e-02 0.000000e+00 9.972038e-01
      outer loop
         vertex -1.822265e+01 2.470385e+02 3.262787e+01
         vertex -2.135254e+01 2.470385e+02 3.239331e+01
         vertex -2.135254e+01 4.703846e+01 3.239331e+01
      endloop
   endfacet
   facet normal -2.947552e-01 0.000000e+00 9.555728e-01
      outer loop
         vertex -2.135254e+01 4.703846e+01 3.239331e+01
         vertex -2.135254e+01 2.470385e+02 3.239331e+01
         vertex -2.733421e+01 2.470385e+02 3.054821e+01
      endloop
   endfacet
   facet normal -2.947552e-01 0.000000e+00 9.555728e-01
      outer loop
         vertex -2.135254e+01 4.703846e+01 3.239331e+01
         vertex -2.733421e+01 2.470385e+02 3.054821e+01
         vertex -2.733421e+01 4.703846e+01 3.054821e+01
      endloop
   endfacet
   facet normal -5.633200e-01 0.000000e+00 8.262388e-01
      outer loop
         vertex -2.733421e+01 4.703846e+01 3.054821e+01
         vertex -2.733421e+01 2.470385e+02 3.054821e+01
         vertex -3.250628e+01 2.470385e+02 2.702196e+01
      endloop
   endfacet
   facet normal -5.633200e-01 0.000000e+00 8.262388e-01
      outer loop
         vertex -2.733421e+01 4.703846e+01 3.054821e+01
         vertex -3.250628e+01 2.470385e+02 2.702196e+01
         vertex -3.250628e+01 4.703846e+01 2.702196e+01
      endloop
   endfacet
   facet normal -7.818316e-01 0.000000e+00 6.234897e-01
      outer loop
         vertex -3.250628e+01 4.703846e+01 2.702196e+01
         vertex -3.250628e+01 2.470385e+02 2.702196e+01
         vertex -3.640918e+01 2.470385e+02 2.212787e+01
      endloop
   endfacet
   facet normal -7.818316e-01 0.000000e+00 6.234897e-01
      outer loop
         vertex -3.250628e+01 4.703846e+01 2.702196e+01
         vertex -3.640918e+01 2.470385e+02 2.212787e+01
         vertex -3.640918e+01 4.703846e+01 2.212787e+01
      endloop
   endfacet
   facet normal -9.308738e-01 0.000000e+00 3.653410e-01
      outer loop
         vertex -3.640918e+01 4.703846e+01 2.212787e+01
         vertex -3.640918e+01 2.470385e+02 2.212787e+01
         vertex -3.869613e+01 2.470385e+02 1.630081e+01
      endloop
   endfacet
   facet normal -9.308738e-01 0.000000e+00 3.653410e-01
      outer loop
         vertex -3.640918e+01 4.703846e+01 2.212787e+01
         vertex -3.869613e+01 2.470385e+02 1.630081e+01
         vertex -3.869613e+01 4.703846e+01 1.630081e+01
      endloop
   endfacet
   facet normal -9.972038e-01 0.000000e+00 7.473046e-02
      outer loop
         vertex -3.869613e+01 4.703846e+01 1.630081e+01
         vertex -3.869613e+01 2.470385e+02 1.630081e+01
         vertex -3.916393e+01 2.470385e+02 1.005854e+01
      endloop
   endfacet
   facet normal -9.972038e-01 0.000000e+00 7.473046e-02
      outer loop
         vertex -3.869613e+01 4.703846e+01 1.630081e+01
         vertex -3.916393e+01 2.470385e+02 1.005854e+01
         vertex -3.916393e+01 4.703846e+01 1.005854e+01
      endloop
   endfacet
   facet normal -9.749279e-01 0.000000e+00 -2.225209e-01
      outer loop
         vertex -3.916393e+01 4.703846e+01 1.005854e+01
         vertex -3.916393e+01 2.470385e+02 1.005854e+01
         vertex -3.777100e+01 2.470385e+02 3.955706e+00
      endloop
   endfacet
   facet normal -9.749279e-01 0.000000e+00 -2.225209e-01
      outer loop
         vertex -3.916393e+01 4.703846e+01 1.005854e+01
         vertex -3.777100e+01 2.470385e+02 3.955706e+00
         vertex -3.777100e+01 4.703846e+01 3.955706e+00
      endloop
   endfacet
   facet normal -8.660254e-01 0.000000e+00 -5.000001e-01
      outer loop
         vertex -3.777100e+01 4.703846e+01 3.955706e+00
         vertex -3.777100e+01 2.470385e+02 3.955706e+00
         vertex -3.464111e+01 2.470385e+02 -1.465419e+00
      endloop
   endfacet
   facet normal -8.660254e-01 0.000000e+00 -5.000001e-01
      outer loop
         vertex -3.777100e+01 4.703846e+01 3.955706e+00
         vertex -3.464111e+01 2.470385e+02 -1.465419e+00
         vertex -3.464111e+01 4.703846e+01 -1.465419e+00
      endloop
   endfacet
   facet normal -6.801727e-01 0.000000e+00 -7.330519e-01
      outer loop
         vertex -3.464111e+01 4.703846e+01 -1.465419e+00
         vertex -3.464111e+01 2.470385e+02 -1.465419e+00
         vertex -3.005237e+01 2.470385e+02 -5.723147e+00
      endloop
   endfacet
   facet normal -6.801727e-01 0.000000e+00 -7.330519e-01
      outer loop
         vertex -3.464111e+01 4.703846e+01 -1.465419e+00
         vertex -3.005237e+01 2.470385e+02 -5.723147e+00
         vertex -3.005237e+01 4.703846e+01 -5.723147e+00
      endloop
   endfacet
   facet normal -4.338838e-01 0.000000e+00 -9.009689e-01
      outer loop
         vertex -3.005237e+01 4.703846e+01 -5.723147e+00
         vertex -3.005237e+01 2.470385e+02 -5.723147e+00
         vertex -2.441251e+01 2.470385e+02 -8.439162e+00
      endloop
   endfacet
   facet normal -4.338838e-01 0.000000e+00 -9.009689e-01
      outer loop
         vertex -3.005237e+01 4.703846e+01 -5.723147e+00
         vertex -2.441251e+01 2.470385e+02 -8.439162e+00
         vertex -2.441251e+01 4.703846e+01 -8.439162e+00
      endloop
   endfacet
   facet normal -1.490422e-01 0.000000e+00 -9.888308e-01
      outer loop
         vertex -2.441251e+01 4.703846e+01 -8.439162e+00
         vertex -2.441251e+01 2.470385e+02 -8.439162e+00
         vertex -1.822265e+01 2.470385e+02 -9.372133e+00
      endloop
   endfacet
   facet normal -1.490422e-01 0.000000e+00 -9.888308e-01
      outer loop
         vertex -2.441251e+01 4.703846e+01 -8.439162e+00
         vertex -1.822265e+01 2.470385e+02 -9.372133e+00
         vertex -1.822265e+01 4.703846e+01 -9.372133e+00
      endloop
   endfacet
   facet normal 1.490423e-01 0.000000e+00 -9.888308e-01
      outer loop
         vertex -1.822265e+01 4.703846e+01 -9.372133e+00
         vertex -1.822265e+01 2.470385e+02 -9.372133e+00
         vertex -1.203279e+01 2.470385e+02 -8.439162e+00
      endloop
   endfacet
   facet normal 1.490423e-01 0.000000e+00 -9.888308e-01
      outer loop
         vertex -1.822265e+01 4.703846e+01 -9.372133e+00
         vertex -1.203279e+01 2.470385e+02 -8.439162e+00
         vertex -1.203279e+01 4.703846e+01 -8.439162e+00
      endloop
   endfacet
   facet normal 4.338837e-01 0.000000e+00 -9.009689e-01
      outer loop
         vertex -1.203279e+01 4.703846e+01 -8.439162e+00
         vertex -1.203279e+01 2.470385e+02 -8.439162e+00
         vertex -6.392926e+00 2.470385e+02 -5.723147e+00
      endloop
   endfacet
   facet normal 4.338837e-01 0.000000e+00 -9.009689e-01
      outer loop
         vertex -1.203279e+01 4.703846e+01 -8.439162e+00
         vertex -6.392926e+00 2.470385e+02 -5.723147e+00
         vertex -6.392926e+00 4.703846e+01 -5.723147e+00
      endloop
   endfacet
   facet normal 6.801727e-01 0.000000e+00 -7.330519e-01
      outer loop
         vertex -6.392926e+00 4.703846e+01 -5.723147e+00
         vertex -6.392926e+00 2.470385e+02 -5.723147e+00
         vertex -1.804186e+00 2.470385e+02 -1.465419e+00
      endloop
   endfacet
   facet normal 6.801727e-01 0.000000e+00 -7.330519e-01
      outer loop
         vertex -6.392926e+00 4.703846e+01 -5.723147e+00
         vertex -1.804186e+00 2.470385e+02 -1.465419e+00
         vertex -1.804186e+00 4.703846e+01 -1.465419e+00
      endloop
   endfacet
   facet normal 8.660254e-01 0.000000e+00 -5.000000e-01
      outer loop
         vertex -1.804186e+00 4.703846e+01 -1.465419e+00
         vertex -1.804186e+00 2.470385e+02 -1.465419e+00
         vertex 1.325701e+00 2.470385e+02 3.955706e+00
      endloop
   endfacet
   facet normal 8.660254e-01 0.000000e+00 -5.000000e-01
      outer loop
         vertex -1.804186e+00 4.703846e+01 -1.465419e+00
         vertex 1.325701e+00 2.470385e+02 3.955706e+00
         vertex 1.325701e+00 4.703846e+01 3.955706e+00
      endloop
   endfacet
   facet normal 9.749279e-01 0.000000e+00 -2.225209e-01
      outer loop
         vertex 1.325701e+00 4.703846e+01 3.955706e+00
         vertex 1.325701e+00 2.470385e+02 3.955706e+00
         vertex 2.718632e+00 2.470385e+02 1.005854e+01
      endloop
   endfacet
   facet normal 9.749279e-01 0.000000e+00 -2.225209e-01
      outer loop
         vertex 1.325701e+00 4.703846e+01 3.955706e+00
         vertex 2.718632e+00 2.470385e+02 1.005854e+01
         vertex 2.718632e+00 4.703846e+01 1.005854e+01
      endloop
   endfacet
   facet normal 9.972038e-01 -0.000000e+00 7.473009e-02
      outer loop
         vertex 2.718632e+00 4.703846e+01 1.005854e+01
         vertex 2.718632e+00 2.470385e+02 1.005854e+01
         vertex 2.250839e+00 2.470385e+02 1.630081e+01
      endloop
   endfacet
   facet normal 9.972038e-01 0.000000e+00 7.473009e-02
      outer loop
         vertex 2.718632e+00 4.703846e+01 1.005854e+01
         vertex 2.250839e+00 2.470385e+02 1.630081e+01
         vertex 2.250839e+00 4.703846e+01 1.630081e+01
      endloop
   endfacet
   facet normal 9.308737e-01 -0.000000e+00 3.653411e-01
      outer loop
         vertex 2.250839e+00 4.703846e+01 1.630081e+01
         vertex 2.250839e+00 2.470385e+02 1.630081e+01
         vertex -3.611419e-02 2.470385e+02 2.212787e+01
      endloop
   endfacet
   facet normal 9.308737e-01 0.000000e+00 3.653411e-01
      outer loop
         vertex 2.250839e+00 4.703846e+01 1.630081e+01
         vertex -3.611419e-02 2.470385e+02 2.212787e+01
         vertex -3.611419e-02 4.703846e+01 2.212787e+01
      endloop
   endfacet
   facet normal 7.818315e-01 -0.000000e+00 6.234898e-01
      outer loop
         vertex -3.611419e-02 4.703846e+01 2.212787e+01
         vertex -3.611419e-02 2.470385e+02 2.212787e+01
         vertex -3.939020e+00 2.470385e+02 2.702196e+01
      endloop
   endfacet
   facet normal 7.818315e-01 0.000000e+00 6.234898e-01
      outer loop
         vertex -3.611419e-02 4.703846e+01 2.212787e+01
         vertex -3.939020e+00 2.470385e+02 2.702196e+01
         vertex -3.939020e+00 4.703846e+01 2.702196e+01
      endloop
   endfacet
   facet normal 5.633201e-01 -0.000000e+00 8.262387e-01
      outer loop
         vertex -3.939020e+00 4.703846e+01 2.702196e+01
         vertex -3.939020e+00 2.470385e+02 2.702196e+01
         vertex -9.111089e+00 2.470385e+02 3.054821e+01
      endloop
   endfacet
   facet normal 5.633201e-01 0.000000e+00 8.262387e-01
      outer loop
         vertex -3.939020e+00 4.703846e+01 2.702196e+01
         vertex -9.111089e+00 2.470385e+02 3.054821e+01
         vertex -9.111089e+00 4.703846e+01 3.054821e+01
      endloop
   endfacet
   facet normal 2.947551e-01 -0.000000e+00 9.555728e-01
      outer loop
         vertex -9.111089e+00 4.703846e+01 3.054821e+01
         vertex -9.111089e+00 2.470385e+02 3.054821e+01
         vertex -1.509276e+01 2.470385e+02 3.239331e+01
      endloop
   endfacet
   facet normal 2.947551e-01 0.000000e+00 9.555728e-01
      outer loop
         vertex -9.111089e+00 4.703846e+01 3.054821e+01
         vertex -1.509276e+01 2.470385e+02 3.239331e+01
         vertex -1.509276e+01 4.703846e+01 3.239331e+01
      endloop
   endfacet
   facet normal 7.472983e-02 -0.000000e+00 9.972038e-01
      outer loop
         vertex -1.509276e+01 4.703846e+01 3.239331e+01
         vertex -1.509276e+01 2.470385e+02 3.239331e+01
         vertex -1.822265e+01 4.703846e+01 3.262787e+01
      endloop
   endfacet
   facet normal 0.000000e+00 1.000000e+00 0.000000e+00
      outer loop
         vertex -1.822265e+01 2.470385e+02 3.262787e+01
         vertex -1.509276e+01 2.470385e+02 3.239331e+01
         vertex -1.822265e+01 2.470385e+02 1.162787e+01
      endloop
   endfacet
   facet normal -0.000000e+00 1.000000e+00 0.000000e+00
      outer loop
         vertex -3.250628e+01 2.470385e+02 2.702196e+01
         vertex -2.733421e+01 2.470385e+02 3.054821e+01
         vertex -1.822265e+01 2.470385e+02 1.162787e+01
      endloop
   endfacet
   facet normal 0.000000e+00 1.000000e+00 0.000000e+00
      outer loop
         vertex -1.822265e+01 2.470385e+02 1.162787e+01
         vertex -2.733421e+01 2.470385e+02 3.054821e+01
         vertex -2.135254e+01 2.470385e+02 3.239331e+01
      endloop
   endfacet
   facet normal 0.000000e+00 1.000000e+00 -0.000000e+00
      outer loop
         vertex -1.822265e+01 2.470385e+02 1.162787e+01
         vertex -2.135254e+01 2.470385e+02 3.239331e+01
         vertex -1.822265e+01 2.470385e+02 3.262787e+01
      endloop
   endfacet
   facet normal 0.000000e+00 1.000000e+00 0.000000e+00
      outer loop
         vertex -3.916393e+01 2.470385e+02 1.005854e+01
         vertex -3.869613e+01 2.470385e+02 1.630081e+01
         vertex -1.822265e+01 2.470385e+02 1.162787e+01
      endloop
   endfacet
   facet normal 0.000000e+00 1.000000e+00 0.000000e+00
      outer loop
         vertex -1.822265e+01 2.470385e+02 1.162787e+01
         vertex -3.869613e+01 2.470385e+02 1.630081e+01
         vertex -3.640918e+01 2.470385e+02 2.212787e+01
      endloop
   endfacet
   facet normal 0.000000e+00 1.000000e+00 0.000000e+00
      outer loop
         vertex -1.822265e+01 2.470385e+02 1.162787e+01
         vertex -3.640918e+01 2.470385e+02 2.212787e+01
         vertex -3.250628e+01 2.470385e+02 2.702196e+01
      endloop
   endfacet
   facet normal 0.000000e+00 1.000000e+00 -0.000000e+00
      outer loop
         vertex -3.005237e+01 2.470385e+02 -5.723147e+00
         vertex -3.464111e+01 2.470385e+02 -1.465419e+00
         vertex -1.822265e+01 2.470385e+02 1.162787e+01
      endloop
   endfacet
   facet normal 0.000000e+00 1.000000e+00 0.000000e+00
      outer loop
         vertex -1.822265e+01 2.470385e+02 1.162787e+01
         vertex -3.464111e+01 2.470385e+02 -1.465419e+00
         vertex -3.777100e+01 2.470385e+02 3.955706e+00
      endloop
   endfacet
   facet normal 0.000000e+00 1.000000e+00 0.000000e+00
      outer loop
         vertex -1.822265e+01 2.470385e+02 1.162787e+01
         vertex -3.777100e+01 2.470385e+02 3.955706e+00
         vertex -3.916393e+01 2.470385e+02 1.005854e+01
      endloop
   endfacet
   facet normal 0.000000e+00 1.000000e+00 0.000000e+00
      outer loop
         vertex -1.203279e+01 2.470385e+02 -8.439162e+00
         vertex -1.822265e+01 2.470385e+02 -9.372133e+00
         vertex -1.822265e+01 2.470385e+02 1.162787e+01
      endloop
   endfacet
   facet normal 0.000000e+00 1.000000e+00 0.000000e+00
      outer loop
         vertex -1.822265e+01 2.470385e+02 1.162787e+01
         vertex -1.822265e+01 2.470385e+02 -9.372133e+00
         vertex -2.441251e+01 2.470385e+02 -8.439162e+00
      endloop
   endfacet
   facet normal 0.000000e+00 1.000000e+00 0.000000e+00
      outer loop
         vertex -1.822265e+01 2.470385e+02 1.162787e+01
         vertex -2.441251e+01 2.470385e+02 -8.439162e+00
         vertex -3.005237e+01 2.470385e+02 -5.723147e+00
      endloop
   endfacet
   facet normal 0.000000e+00 1.000000e+00 0.000000e+00
      outer loop
         vertex 1.325701e+00 2.470385e+02 3.955706e+00
         vertex -1.804186e+00 2.470385e+02 -1.465419e+00
         vertex -1.822265e+01 2.470385e+02 1.162787e+01
      endloop
   endfacet
   facet normal 0.000000e+00 1.000000e+00 0.000000e+00
      outer loop
         vertex -1.822265e+01 2.470385e+02 1.162787e+01
         vertex -1.804186e+00 2.470385e+02 -1.465419e+00
         vertex -6.392926e+00 2.470385e+02 -5.723147e+00
      endloop
   endfacet
   facet normal 0.000000e+00 1.000000e+00 0.000000e+00
      outer loop
         vertex -1.822265e+01 2.470385e+02 1.162787e+01
         vertex -6.392926e+00 2.470385e+02 -5.723147e+00
         vertex -1.203279e+01 2.470385e+02 -8.439162e+00
      endloop
   endfacet
   facet normal 0.000000e+00 1.000000e+00 0.000000e+00
      outer loop
         vertex -3.611419e-02 2.470385e+02 2.212787e+01
         vertex 2.250839e+00 2.470385e+02 1.630081e+01
         vertex -1.822265e+01 2.470385e+02 1.162787e+01
      endloop
   endfacet
   facet normal -0.000000e+00 1.000000e+00 0.000000e+00
      outer loop
         vertex -1.822265e+01 2.470385e+02 1.162787e+01
         vertex 2.250839e+00 2.470385e+02 1.630081e+01
         vertex 2.718632e+00 2.470385e+02 1.005854e+01
      endloop
   endfacet
   facet normal 0.000000e+00 1.000000e+00 0.000000e+00
      outer loop
         vertex -1.822265e+01 2.470385e+02 1.162787e+01
         vertex 2.718632e+00 2.470385e+02 1.005854e+01
         vertex 1.325701e+00 2.470385e+02 3.955706e+00
      endloop
   endfacet
   facet normal 0.000000e+00 1.000000e+00 0.000000e+00
      outer loop
         vertex -1.509276e+01 2.470385e+02 3.239331e+01
         vertex -9.111089e+00 2.470385e+02 3.054821e+01
         vertex -1.822265e+01 2.470385e+02 1.162787e+01
      endloop
   endfacet
   facet normal 0.000000e+00 1.000000e+00 0.000000e+00
      outer loop
         vertex -1.822265e+01 2.470385e+02 1.162787e+01
         vertex -9.111089e+00 2.470385e+02 3.054821e+01
         vertex -3.939020e+00 2.470385e+02 2.702196e+01
      endloop
   endfacet
   facet normal 0.000000e+00 1.000000e+00 0.000000e+00
      outer loop
         vertex -1.822265e+01 2.470385e+02 1.162787e+01
         vertex -3.939020e+00 2.470385e+02 2.702196e+01
         vertex -3.611419e-02 2.470385e+02 2.212787e+01
      endloop
   endfacet
   facet normal 0.000000e+00 -1.000000e+00 -0.000000e+00
      outer loop
         vertex -1.822265e+01 4.703846e+01 3.262787e+01
         vertex -2.135254e+01 4.703846e+01 3.239331e+01
         vertex -1.822265e+01 4.703846e+01 1.162787e+01
      endloop
   endfacet
   facet normal -0.000000e+00 -1.000000e+00 0.000000e+00
      outer loop
         vertex -3.939020e+00 4.703846e+01 2.702196e+01
         vertex -9.111089e+00 4.703846e+01 3.054821e+01
         vertex -1.822265e+01 4.703846e+01 1.162787e+01
      endloop
   endfacet
   facet normal 0.000000e+00 -1.000000e+00 0.000000e+00
      outer loop
         vertex -1.822265e+01 4.703846e+01 1.162787e+01
         vertex -9.111089e+00 4.703846e+01 3.054821e+01
         vertex -1.509276e+01 4.703846e+01 3.239331e+01
      endloop
   endfacet
   facet normal 0.000000e+00 -1.000000e+00 0.000000e+00
      outer loop
         vertex -1.822265e+01 4.703846e+01 1.162787e+01
         vertex -1.509276e+01 4.703846e+01 3.239331e+01
         vertex -1.822265e+01 4.703846e+01 3.262787e+01
      endloop
   endfacet
   facet normal 0.000000e+00 -1.000000e+00 0.000000e+00
      outer loop
         vertex 2.718632e+00 4.703846e+01 1.005854e+01
         vertex 2.250839e+00 4.703846e+01 1.630081e+01
         vertex -1.822265e+01 4.703846e+01 1.162787e+01
      endloop
   endfacet
   facet normal 0.000000e+00 -1.000000e+00 0.000000e+00
      outer loop
         vertex -1.822265e+01 4.703846e+01 1.162787e+01
         vertex 2.250839e+00 4.703846e+01 1.630081e+01
         vertex -3.611419e-02 4.703846e+01 2.212787e+01
      endloop
   endfacet
   facet normal 0.000000e+00 -1.000000e+00 0.000000e+00
      outer loop
         vertex -1.822265e+01 4.703846e+01 1.162787e+01
         vertex -3.611419e-02 4.703846e+01 2.212787e+01
         vertex -3.939020e+00 4.703846e+01 2.702196e+01
      endloop
   endfacet
   facet normal 0.000000e+00 -1.000000e+00 0.000000e+00
      outer loop
         vertex -6.392926e+00 4.703846e+01 -5.723147e+00
         vertex -1.804186e+00 4.703846e+01 -1.465419e+00
         vertex -1.822265e+01 4.703846e+01 1.162787e+01
      endloop
   endfacet
   facet normal 0.000000e+00 -1.000000e+00 0.000000e+00
      outer loop
         vertex -1.822265e+01 4.703846e+01 1.162787e+01
         vertex -1.804186e+00 4.703846e+01 -1.465419e+00
         vertex 1.325701e+00 4.703846e+01 3.955706e+00
      endloop
   endfacet
   facet normal 0.000000e+00 -1.000000e+00 0.000000e+00
      outer loop
         vertex -1.822265e+01 4.703846e+01 1.162787e+01
         vertex 1.325701e+00 4.703846e+01 3.955706e+00
         vertex 2.718632e+00 4.703846e+01 1.005854e+01
      endloop
   endfacet
   facet normal 0.000000e+00 -1.000000e+00 0.000000e+00
      outer loop
         vertex -2.441251e+01 4.703846e+01 -8.439162e+00
         vertex -1.822265e+01 4.703846e+01 -9.372133e+00
         vertex -1.822265e+01 4.703846e+01 1.162787e+01
      endloop
   endfacet
   facet normal 0.000000e+00 -1.000000e+00 0.000000e+00
      outer loop
         vertex -1.822265e+01 4.703846e+01 1.162787e+01
         vertex -1.822265e+01 4.703846e+01 -9.372133e+00
         vertex -1.203279e+01 4.703846e+01 -8.439162e+00
      endloop
   endfacet
   facet normal 0.000000e+00 -1.000000e+00 0.000000e+00
      outer loop
         vertex -1.822265e+01 4.703846e+01 1.162787e+01
         vertex -1.203279e+01 4.703846e+01 -8.439162e+00
         vertex -6.392926e+00 4.703846e+01 -5.723147e+00
      endloop
   endfacet
   facet normal 0.000000e+00 -1.000000e+00 0.000000e+00
      outer loop
         vertex -3.777100e+01 4.703846e+01 3.955706e+00
         vertex -3.464111e+01 4.703846e+01 -1.465419e+00
         vertex -1.822265e+01 4.703846e+01 1.162787e+01
      endloop
   endfacet
   facet normal 0.000000e+00 -1.000000e+00 0.000000e+00
      outer loop
         vertex -1.822265e+01 4.703846e+01 1.162787e+01
         vertex -3.464111e+01 4.703846e+01 -1.465419e+00
         vertex -3.005237e+01 4.703846e+01 -5.723147e+00
      endloop
   endfacet
   facet normal 0.000000e+00 -1.000000e+00 0.000000e+00
      outer loop
         vertex -1.822265e+01 4.703846e+01 1.162787e+01
         vertex -3.005237e+01 4.703846e+01 -5.723147e+00
         vertex -2.441251e+01 4.703846e+01 -8.439162e+00
      endloop
   endfacet
   facet normal 0.000000e+00 -1.000000e+00 -0.000000e+00
      outer loop
         vertex -3.640918e+01 4.703846e+01 2.212787e+01
         vertex -3.869613e+01 4.703846e+01 1.630081e+01
         vertex -1.822265e+01 4.703846e+01 1.162787e+01
      endloop
   endfacet
   facet normal -0.000000e+00 -1.000000e+00 0.000000e+00
      outer loop
         vertex -1.822265e+01 4.703846e+01 1.162787e+01
         vertex -3.869613e+01 4.703846e+01 1.630081e+01
         vertex -3.916393e+01 4.703846e+01 1.005854e+01
      endloop
   endfacet
   facet normal 0.000000e+00 -1.000000e+00 0.000000e+00
      outer loop
         vertex -1.822265e+01 4.703846e+01 1.162787e+01
         vertex -3.916393e+01 4.703846e+01 1.005854e+01
         vertex -3.777100e+01 4.703846e+01 3.955706e+00
      endloop
   endfacet
   facet normal 0.000000e+00 -1.000000e+00 -0.000000e+00
      outer loop
         vertex -2.135254e+01 4.703846e+01 3.239331e+01
         vertex -2.733421e+01 4.703846e+01 3.054821e+01
         vertex -1.822265e+01 4.703846e+01 1.162787e+01
      endloop
   endfacet
   facet normal 0.000000e+00 -1.000000e+00 0.000000e+00
      outer loop
         vertex -1.822265e+01 4.703846e+01 1.162787e+01
         vertex -2.733421e+01 4.703846e+01 3.054821e+01
         vertex -3.250628e+01 4.703846e+01 2.702196e+01
      endloop
   endfacet
   facet normal 0.000000e+00 -1.000000e+00 0.000000e+00
      outer loop
         vertex -1.822265e+01 4.703846e+01 1.162787e+01
         vertex -3.250628e+01 4.703846e+01 2.702196e+01
         vertex -3.640918e+01 4.703846e+01 2.212787e+01
      endloop
   endfacet
endsolid seedling_full_Default_sldprt